<svg viewBox="0 0 1000 680" xmlns="http://www.w3.org/2000/svg">
  <defs>
    <marker id="arr" markerWidth="8" markerHeight="6" refX="8" refY="3" orient="auto">
      <path d="M0,0 L8,3 L0,6" fill="#64748b"/>
    </marker>
    <marker id="arr-green" markerWidth="8" markerHeight="6" refX="8" refY="3" orient="auto">
      <path d="M0,0 L8,3 L0,6" fill="#059669"/>
    </marker>
    <marker id="arr-pink" markerWidth="8" markerHeight="6" refX="8" refY="3" orient="auto">
      <path d="M0,0 L8,3 L0,6" fill="#db2777"/>
    </marker>
    <style>
      text { font-family: ui-sans-serif, system-ui, -apple-system, "Segoe UI", sans-serif; }
    </style>
  </defs>

  <!-- Background -->
  <rect width="1000" height="680" fill="#f8fafc" rx="12"/>

  <!-- Title -->
  <text x="500" y="34" text-anchor="middle" font-size="20" font-weight="700" fill="#172033">CloudClaw — 企业级 AI Agent 平台架构</text>
  <text x="500" y="54" text-anchor="middle" font-size="12" fill="#5b6475">企业开发者构建数字员工，服务全体员工</text>

  <!-- ===== Zone 1: 企业员工 (top) ===== -->
  <rect x="40" y="70" width="920" height="105" fill="none" stroke="#059669" stroke-width="1.5" stroke-dasharray="8 5" rx="16"/>
  <text x="60" y="93" font-size="14" font-weight="700" fill="#059669">👥 企业员工（全员使用）</text>
  <text x="60" y="109" font-size="11" fill="#5b6475">通过 Web / 移动端与数字员工交互</text>

  <rect x="130" y="118" width="76" height="40" fill="#e2e8f0" stroke="#94a3b8" stroke-width="1" rx="20"/>
  <text x="168" y="143" text-anchor="middle" font-size="11" fill="#172033">👤 员工A</text>

  <rect x="250" y="118" width="76" height="40" fill="#e2e8f0" stroke="#94a3b8" stroke-width="1" rx="20"/>
  <text x="288" y="143" text-anchor="middle" font-size="11" fill="#172033">👤 员工B</text>

  <rect x="370" y="118" width="76" height="40" fill="#e2e8f0" stroke="#94a3b8" stroke-width="1" rx="20"/>
  <text x="408" y="143" text-anchor="middle" font-size="11" fill="#172033">👤 员工C</text>

  <text x="478" y="143" font-size="12" fill="#5b6475">…</text>

  <rect x="520" y="118" width="76" height="40" fill="#e2e8f0" stroke="#94a3b8" stroke-width="1" rx="20"/>
  <text x="558" y="143" text-anchor="middle" font-size="11" fill="#172033">👤 员工N</text>

  <!-- Arrows: employees -> CloudClaw -->
  <line x1="168" y1="158" x2="380" y2="210" stroke="#64748b" stroke-width="1.5" fill="none" marker-end="url(#arr-green)"/>
  <line x1="288" y1="158" x2="430" y2="210" stroke="#64748b" stroke-width="1.5" fill="none" marker-end="url(#arr-green)"/>
  <line x1="408" y1="158" x2="500" y2="210" stroke="#64748b" stroke-width="1.5" fill="none" marker-end="url(#arr-green)"/>
  <line x1="558" y1="158" x2="570" y2="210" stroke="#64748b" stroke-width="1.5" fill="none" marker-end="url(#arr-green)"/>

  <!-- ===== Zone 2: CloudClaw Platform ===== -->
  <rect x="180" y="195" width="640" height="255" fill="none" stroke="#6366f1" stroke-width="1.5" stroke-dasharray="8 5" rx="16"/>
  <text x="200" y="218" font-size="14" font-weight="700" fill="#6366f1">⚡ CloudClaw 平台</text>
  <text x="200" y="234" font-size="11" fill="#5b6475">多租户 · 多Agent · 工作流引擎 · 统一API</text>

  <!-- Engine row -->
  <rect x="220" y="248" width="190" height="55" fill="#c7d2fe" stroke="#94a3b8" stroke-width="1" rx="8"/>
  <text x="315" y="272" text-anchor="middle" font-size="13" font-weight="600" fill="#172033">🔀 工作流引擎</text>
  <text x="315" y="290" text-anchor="middle" font-size="10" fill="#5b6475">Pipeline · Router · Supervisor</text>

  <rect x="430" y="248" width="150" height="55" fill="#c7d2fe" stroke="#94a3b8" stroke-width="1" rx="8"/>
  <text x="505" y="272" text-anchor="middle" font-size="13" font-weight="600" fill="#172033">🔐 认证 &amp; 隔离</text>
  <text x="505" y="290" text-anchor="middle" font-size="10" fill="#5b6475">JWT · RBAC · 多租户</text>

  <rect x="600" y="248" width="130" height="55" fill="#99f6e4" stroke="#94a3b8" stroke-width="1" rx="8"/>
  <text x="665" y="272" text-anchor="middle" font-size="13" font-weight="600" fill="#172033">💾 记忆服务</text>
  <text x="665" y="290" text-anchor="middle" font-size="10" fill="#5b6475">JDBC · Mem0</text>

  <!-- Agent row (数字员工) -->
  <rect x="220" y="325" width="130" height="48" fill="#bfdbfe" stroke="#94a3b8" stroke-width="1" rx="8"/>
  <text x="285" y="346" text-anchor="middle" font-size="12" font-weight="600" fill="#172033">🤖 客服 Agent</text>
  <text x="285" y="362" text-anchor="middle" font-size="10" fill="#5b6475">数字员工</text>

  <rect x="370" y="325" width="130" height="48" fill="#bfdbfe" stroke="#94a3b8" stroke-width="1" rx="8"/>
  <text x="435" y="346" text-anchor="middle" font-size="12" font-weight="600" fill="#172033">📊 数据分析 Agent</text>
  <text x="435" y="362" text-anchor="middle" font-size="10" fill="#5b6475">数字员工</text>

  <rect x="520" y="325" width="130" height="48" fill="#bfdbfe" stroke="#94a3b8" stroke-width="1" rx="8"/>
  <text x="585" y="346" text-anchor="middle" font-size="12" font-weight="600" fill="#172033">📝 文档 Agent</text>
  <text x="585" y="362" text-anchor="middle" font-size="10" fill="#5b6475">数字员工</text>

  <rect x="670" y="325" width="80" height="48" fill="#fde68a" stroke="#94a3b8" stroke-width="1" rx="8"/>
  <text x="710" y="352" text-anchor="middle" font-size="12" fill="#172033">…</text>

  <!-- Tooling row -->
  <rect x="220" y="390" width="130" height="36" fill="#e2e8f0" stroke="#94a3b8" stroke-width="1" rx="6"/>
  <text x="285" y="413" text-anchor="middle" font-size="11" fill="#172033">🔌 MCP 网关</text>

  <rect x="370" y="390" width="130" height="36" fill="#e2e8f0" stroke="#94a3b8" stroke-width="1" rx="6"/>
  <text x="435" y="413" text-anchor="middle" font-size="11" fill="#172033">🛠️ 技能系统</text>

  <rect x="520" y="390" width="130" height="36" fill="#e2e8f0" stroke="#94a3b8" stroke-width="1" rx="6"/>
  <text x="585" y="413" text-anchor="middle" font-size="11" fill="#172033">📦 代码沙箱</text>

  <rect x="670" y="390" width="80" height="36" fill="#e2e8f0" stroke="#94a3b8" stroke-width="1" rx="6"/>
  <text x="710" y="413" text-anchor="middle" font-size="11" fill="#172033">🌐 LLM</text>

  <!-- ===== Zone 3: 企业开发者 (bottom-left) ===== -->
  <rect x="40" y="480" width="290" height="110" fill="none" stroke="#db2777" stroke-width="1.5" stroke-dasharray="8 5" rx="16"/>
  <text x="60" y="503" font-size="14" font-weight="700" fill="#db2777">🛠️ 企业开发者</text>
  <text x="60" y="519" font-size="11" fill="#5b6475">配置和编排数字员工</text>

  <rect x="70" y="533" width="110" height="40" fill="#fecaca" stroke="#94a3b8" stroke-width="1" rx="8"/>
  <text x="125" y="558" text-anchor="middle" font-size="11" fill="#172033">📐 配置 Agent</text>

  <rect x="200" y="533" width="110" height="40" fill="#fecaca" stroke="#94a3b8" stroke-width="1" rx="8"/>
  <text x="255" y="558" text-anchor="middle" font-size="11" fill="#172033">🔄 编排工作流</text>

  <!-- Arrow: developer -> platform -->
  <line x1="185" y1="480" x2="340" y2="450" stroke="#db2777" stroke-width="1.5" fill="none" marker-end="url(#arr-pink)"/>
  <text x="220" y="458" font-size="10" fill="#db2777">构建 &amp; 管理</text>

  <!-- ===== Zone 4: Infrastructure (bottom-center) ===== -->
  <rect x="370" y="480" width="250" height="110" fill="none" stroke="#94a3b8" stroke-width="1.5" stroke-dasharray="8 5" rx="16"/>
  <text x="390" y="503" font-size="14" font-weight="700" fill="#172033">🗄️ 基础设施</text>
  <text x="390" y="519" font-size="11" fill="#5b6475">可插拔后端</text>

  <rect x="390" y="533" width="100" height="40" fill="#e2e8f0" stroke="#94a3b8" stroke-width="1" rx="8"/>
  <text x="440" y="558" text-anchor="middle" font-size="11" fill="#172033">🐘 PostgreSQL</text>

  <rect x="510" y="533" width="80" height="40" fill="#e2e8f0" stroke="#94a3b8" stroke-width="1" rx="8"/>
  <text x="550" y="558" text-anchor="middle" font-size="11" fill="#172033">⚡ Redis</text>

  <!-- Arrow: infra -> platform -->
  <line x1="490" y1="480" x2="470" y2="450" stroke="#64748b" stroke-width="1.5" fill="none" marker-end="url(#arr)"/>

  <!-- ===== Zone 5: OpenClaw (bottom-right) ===== -->
  <rect x="660" y="480" width="300" height="110" fill="none" stroke="#94a3b8" stroke-width="1" stroke-dasharray="8 5" rx="16" opacity="0.5"/>
  <text x="680" y="503" font-size="14" font-weight="700" fill="#172033" opacity="0.6">🐾 OpenClaw（对比）</text>
  <text x="680" y="519" font-size="11" fill="#5b6475" opacity="0.5">个人 AI 助手，面向个人开发者</text>

  <rect x="680" y="533" width="100" height="40" fill="#e2e8f0" stroke="#94a3b8" stroke-width="1" rx="8" opacity="0.5"/>
  <text x="730" y="558" text-anchor="middle" font-size="11" fill="#172033" opacity="0.6">👤 个人用户</text>

  <rect x="800" y="533" width="100" height="40" fill="#e2e8f0" stroke="#94a3b8" stroke-width="1" rx="8" opacity="0.5"/>
  <text x="850" y="558" text-anchor="middle" font-size="11" fill="#172033" opacity="0.6">📝 本地记忆</text>

  <!-- Bottom annotation -->
  <text x="500" y="640" text-anchor="middle" font-size="11" fill="#5b6475">
    OpenClaw = 个人管家（1人1Agent，本地运行）  ·  CloudClaw = 企业Agent平台（多租户，N个数字员工，服务全员）
  </text>
</svg>
